# xmcd
#
# Track frame offsets:
#	150
#	13752
#	26045
#	41146
#	59767
#	72857
#	86429
#	108828
#	130917
#	148449
#	164914
#	180798
#
# Disc length: 2646 seconds
#
# Revision: 1
# Processed by: cddbd v1.5.2PL0 Copyright (c) Steve Scherf et al.
# Submitted via: audiograbber 1.83.01
#
DISCID=ae0a540c
DTITLE=Greta Gaines - Whistey Thoughts
DYEAR=2008
DGENRE=Altcountry
TTITLE0=Whiskey Thoughts
TTITLE1=Hey Evan
TTITLE2=Dirty Blonde
TTITLE3=Armageddan Love Song (Under A Texas Sky)
TTITLE4=L is 4 L-O-S-E-R
TTITLE5=Love is Twisted
TTITLE6=Falling James
TTITLE7=Say Grace
TTITLE8=Braggart
TTITLE9=The Willie Waltz
TTITLE10=I'm High
TTITLE11=Warrior
EXTD=
EXTT0=
EXTT1=
EXTT2=
EXTT3=
EXTT4=
EXTT5=
EXTT6=
EXTT7=
EXTT8=
EXTT9=
EXTT10=
EXTT11=
PLAYORDER=
